solid OpenSCAD_Model
  facet normal 0 0 -1
    outer loop
      vertex -3.8 0 0
      vertex -3.72698 0.741343 0
      vertex -3.72698 -0.741343 0
    endloop
  endfacet
  facet normal 0 0 -1
    outer loop
      vertex -3.72698 -0.741343 0
      vertex -3.72698 0.741343 0
      vertex -3.51074 1.4542 0
    endloop
  endfacet
  facet normal 0 0 -1
    outer loop
      vertex -3.72698 -0.741343 0
      vertex -3.51074 1.4542 0
      vertex -3.15958 2.11117 0
    endloop
  endfacet
  facet normal 0 0 -1
    outer loop
      vertex -3.72698 -0.741343 0
      vertex -3.15958 2.11117 0
      vertex -2.68701 2.68701 0
    endloop
  endfacet
  facet normal 0 0 -1
    outer loop
      vertex -3.72698 -0.741343 0
      vertex -2.68701 2.68701 0
      vertex -2.11117 3.15958 0
    endloop
  endfacet
  facet normal 0 0 -1
    outer loop
      vertex -3.72698 -0.741343 0
      vertex -2.11117 3.15958 0
      vertex -1.4542 3.51074 0
    endloop
  endfacet
  facet normal 0 0 -1
    outer loop
      vertex -3.72698 -0.741343 0
      vertex -1.4542 3.51074 0
      vertex -0.741343 3.72698 0
    endloop
  endfacet
  facet normal 0 0 -1
    outer loop
      vertex -3.72698 -0.741343 0
      vertex -0.741343 3.72698 0
      vertex 0 3.8 0
    endloop
  endfacet
  facet normal 0 0 -1
    outer loop
      vertex -3.72698 -0.741343 0
      vertex 0 3.8 0
      vertex 0.741343 3.72698 0
    endloop
  endfacet
  facet normal 0 0 -1
    outer loop
      vertex -3.72698 -0.741343 0
      vertex 0.741343 3.72698 0
      vertex 1.4542 3.51074 0
    endloop
  endfacet
  facet normal 0 0 -1
    outer loop
      vertex -3.72698 -0.741343 0
      vertex 1.4542 3.51074 0
      vertex 2.11117 3.15958 0
    endloop
  endfacet
  facet normal 0 0 -1
    outer loop
      vertex -3.72698 -0.741343 0
      vertex 2.11117 3.15958 0
      vertex 2.68701 2.68701 0
    endloop
  endfacet
  facet normal 0 0 -1
    outer loop
      vertex -3.72698 -0.741343 0
      vertex 2.68701 2.68701 0
      vertex 3.15958 2.11117 0
    endloop
  endfacet
  facet normal 0 0 -1
    outer loop
      vertex -3.72698 -0.741343 0
      vertex 3.15958 2.11117 0
      vertex 3.51074 1.4542 0
    endloop
  endfacet
  facet normal 0 0 -1
    outer loop
      vertex -3.72698 -0.741343 0
      vertex 3.51074 1.4542 0
      vertex 3.72698 0.741343 0
    endloop
  endfacet
  facet normal 0 0 -1
    outer loop
      vertex -3.72698 -0.741343 0
      vertex 3.72698 0.741343 0
      vertex 3.8 0 0
    endloop
  endfacet
  facet normal 0 0 -1
    outer loop
      vertex -3.72698 -0.741343 0
      vertex 3.8 0 0
      vertex 3.72698 -0.741343 0
    endloop
  endfacet
  facet normal 0 0 -1
    outer loop
      vertex -3.72698 -0.741343 0
      vertex 3.72698 -0.741343 0
      vertex 3.51074 -1.4542 0
    endloop
  endfacet
  facet normal 0 0 -1
    outer loop
      vertex -3.72698 -0.741343 0
      vertex 3.51074 -1.4542 0
      vertex 3.15958 -2.11117 0
    endloop
  endfacet
  facet normal 0 0 -1
    outer loop
      vertex -3.72698 -0.741343 0
      vertex 3.15958 -2.11117 0
      vertex 2.68701 -2.68701 0
    endloop
  endfacet
  facet normal 0 0 -1
    outer loop
      vertex -3.72698 -0.741343 0
      vertex 2.68701 -2.68701 0
      vertex 2.11117 -3.15958 0
    endloop
  endfacet
  facet normal 0 0 -1
    outer loop
      vertex -3.72698 -0.741343 0
      vertex 2.11117 -3.15958 0
      vertex 1.4542 -3.51074 0
    endloop
  endfacet
  facet normal 0 0 -1
    outer loop
      vertex -3.72698 -0.741343 0
      vertex 1.4542 -3.51074 0
      vertex 0.741343 -3.72698 0
    endloop
  endfacet
  facet normal 0 0 -1
    outer loop
      vertex -3.72698 -0.741343 0
      vertex 0.741343 -3.72698 0
      vertex 0 -3.8 0
    endloop
  endfacet
  facet normal 0 0 -1
    outer loop
      vertex -3.72698 -0.741343 0
      vertex 0 -3.8 0
      vertex -0.741343 -3.72698 0
    endloop
  endfacet
  facet normal 0 0 -1
    outer loop
      vertex -3.72698 -0.741343 0
      vertex -0.741343 -3.72698 0
      vertex -1.4542 -3.51074 0
    endloop
  endfacet
  facet normal 0 0 -1
    outer loop
      vertex -3.72698 -0.741343 0
      vertex -1.4542 -3.51074 0
      vertex -2.11117 -3.15958 0
    endloop
  endfacet
  facet normal 0 0 -1
    outer loop
      vertex -3.72698 -0.741343 0
      vertex -2.11117 -3.15958 0
      vertex -2.68701 -2.68701 0
    endloop
  endfacet
  facet normal 0 0 -1
    outer loop
      vertex -3.72698 -0.741343 0
      vertex -2.68701 -2.68701 0
      vertex -3.15958 -2.11117 0
    endloop
  endfacet
  facet normal 0 0 -1
    outer loop
      vertex -3.72698 -0.741343 0
      vertex -3.15958 -2.11117 0
      vertex -3.51074 -1.4542 0
    endloop
  endfacet
  facet normal -0.995185 0.0980173 0
    outer loop
      vertex -3.8 0 0
      vertex -3.8 0 1.5
      vertex -3.72698 0.741343 0
    endloop
  endfacet
  facet normal -0.995185 0.0980173 0
    outer loop
      vertex -3.72698 0.741343 0
      vertex -3.8 0 1.5
      vertex -3.72698 0.741343 1.5
    endloop
  endfacet
  facet normal -0.995185 -0.0980173 0
    outer loop
      vertex -3.8 0 0
      vertex -3.72698 -0.741343 0
      vertex -3.8 0 1.5
    endloop
  endfacet
  facet normal -0.995185 -0.0980173 0
    outer loop
      vertex -3.8 0 1.5
      vertex -3.72698 -0.741343 0
      vertex -3.72698 -0.741343 1.5
    endloop
  endfacet
  facet normal -0.95694 -0.290285 0
    outer loop
      vertex -3.72698 -0.741343 0
      vertex -3.51074 -1.4542 0
      vertex -3.72698 -0.741343 1.5
    endloop
  endfacet
  facet normal -0.95694 -0.290285 0
    outer loop
      vertex -3.72698 -0.741343 1.5
      vertex -3.51074 -1.4542 0
      vertex -3.51074 -1.4542 1.5
    endloop
  endfacet
  facet normal -0.881922 -0.471396 0
    outer loop
      vertex -3.51074 -1.4542 0
      vertex -3.15958 -2.11117 0
      vertex -3.51074 -1.4542 1.5
    endloop
  endfacet
  facet normal -0.881922 -0.471396 0
    outer loop
      vertex -3.51074 -1.4542 1.5
      vertex -3.15958 -2.11117 0
      vertex -3.15958 -2.11117 1.5
    endloop
  endfacet
  facet normal -0.77301 -0.634393 0
    outer loop
      vertex -3.15958 -2.11117 0
      vertex -2.68701 -2.68701 0
      vertex -3.15958 -2.11117 1.5
    endloop
  endfacet
  facet normal -0.77301 -0.634393 0
    outer loop
      vertex -3.15958 -2.11117 1.5
      vertex -2.68701 -2.68701 0
      vertex -2.68701 -2.68701 1.5
    endloop
  endfacet
  facet normal -0.634393 -0.77301 0
    outer loop
      vertex -2.68701 -2.68701 1.5
      vertex -2.68701 -2.68701 0
      vertex -2.11117 -3.15958 0
    endloop
  endfacet
  facet normal -0.634393 -0.77301 0
    outer loop
      vertex -2.11117 -3.15958 1.5
      vertex -2.68701 -2.68701 1.5
      vertex -2.11117 -3.15958 0
    endloop
  endfacet
  facet normal -0.471396 -0.881922 0
    outer loop
      vertex -2.11117 -3.15958 1.5
      vertex -2.11117 -3.15958 0
      vertex -1.4542 -3.51074 0
    endloop
  endfacet
  facet normal -0.471396 -0.881922 0
    outer loop
      vertex -1.4542 -3.51074 1.5
      vertex -2.11117 -3.15958 1.5
      vertex -1.4542 -3.51074 0
    endloop
  endfacet
  facet normal -0.290285 -0.95694 0
    outer loop
      vertex -1.4542 -3.51074 1.5
      vertex -1.4542 -3.51074 0
      vertex -0.741343 -3.72698 0
    endloop
  endfacet
  facet normal -0.290285 -0.95694 0
    outer loop
      vertex -0.741343 -3.72698 1.5
      vertex -1.4542 -3.51074 1.5
      vertex -0.741343 -3.72698 0
    endloop
  endfacet
  facet normal -0.0980173 -0.995185 0
    outer loop
      vertex -0.741343 -3.72698 1.5
      vertex -0.741343 -3.72698 0
      vertex 0 -3.8 0
    endloop
  endfacet
  facet normal -0.0980173 -0.995185 0
    outer loop
      vertex 0 -3.8 1.5
      vertex -0.741343 -3.72698 1.5
      vertex 0 -3.8 0
    endloop
  endfacet
  facet normal 0.0980173 -0.995185 0
    outer loop
      vertex 0 -3.8 1.5
      vertex 0 -3.8 0
      vertex 0.741343 -3.72698 0
    endloop
  endfacet
  facet normal 0.0980173 -0.995185 0
    outer loop
      vertex 0.741343 -3.72698 1.5
      vertex 0 -3.8 1.5
      vertex 0.741343 -3.72698 0
    endloop
  endfacet
  facet normal 0.290285 -0.95694 0
    outer loop
      vertex 0.741343 -3.72698 1.5
      vertex 0.741343 -3.72698 0
      vertex 1.4542 -3.51074 0
    endloop
  endfacet
  facet normal 0.290285 -0.95694 0
    outer loop
      vertex 1.4542 -3.51074 1.5
      vertex 0.741343 -3.72698 1.5
      vertex 1.4542 -3.51074 0
    endloop
  endfacet
  facet normal 0.471396 -0.881922 0
    outer loop
      vertex 1.4542 -3.51074 1.5
      vertex 1.4542 -3.51074 0
      vertex 2.11117 -3.15958 0
    endloop
  endfacet
  facet normal 0.471396 -0.881922 0
    outer loop
      vertex 2.11117 -3.15958 1.5
      vertex 1.4542 -3.51074 1.5
      vertex 2.11117 -3.15958 0
    endloop
  endfacet
  facet normal 0.634393 -0.77301 0
    outer loop
      vertex 2.11117 -3.15958 1.5
      vertex 2.11117 -3.15958 0
      vertex 2.68701 -2.68701 0
    endloop
  endfacet
  facet normal 0.634393 -0.77301 0
    outer loop
      vertex 2.68701 -2.68701 1.5
      vertex 2.11117 -3.15958 1.5
      vertex 2.68701 -2.68701 0
    endloop
  endfacet
  facet normal 0.77301 -0.634393 0
    outer loop
      vertex 2.68701 -2.68701 1.5
      vertex 2.68701 -2.68701 0
      vertex 3.15958 -2.11117 0
    endloop
  endfacet
  facet normal 0.77301 -0.634393 0
    outer loop
      vertex 3.15958 -2.11117 1.5
      vertex 2.68701 -2.68701 1.5
      vertex 3.15958 -2.11117 0
    endloop
  endfacet
  facet normal 0.881922 -0.471396 0
    outer loop
      vertex 3.15958 -2.11117 1.5
      vertex 3.15958 -2.11117 0
      vertex 3.51074 -1.4542 0
    endloop
  endfacet
  facet normal 0.881922 -0.471396 0
    outer loop
      vertex 3.51074 -1.4542 1.5
      vertex 3.15958 -2.11117 1.5
      vertex 3.51074 -1.4542 0
    endloop
  endfacet
  facet normal 0.95694 -0.290285 0
    outer loop
      vertex 3.51074 -1.4542 1.5
      vertex 3.51074 -1.4542 0
      vertex 3.72698 -0.741343 0
    endloop
  endfacet
  facet normal 0.95694 -0.290285 0
    outer loop
      vertex 3.72698 -0.741343 1.5
      vertex 3.51074 -1.4542 1.5
      vertex 3.72698 -0.741343 0
    endloop
  endfacet
  facet normal 0.995185 -0.0980173 0
    outer loop
      vertex 3.72698 -0.741343 1.5
      vertex 3.72698 -0.741343 0
      vertex 3.8 0 0
    endloop
  endfacet
  facet normal 0.995185 -0.0980173 0
    outer loop
      vertex 3.8 0 1.5
      vertex 3.72698 -0.741343 1.5
      vertex 3.8 0 0
    endloop
  endfacet
  facet normal 0.995185 0.0980173 0
    outer loop
      vertex 3.8 0 0
      vertex 3.72698 0.741343 0
      vertex 3.72698 0.741343 1.5
    endloop
  endfacet
  facet normal 0.995185 0.0980173 0
    outer loop
      vertex 3.8 0 1.5
      vertex 3.8 0 0
      vertex 3.72698 0.741343 1.5
    endloop
  endfacet
  facet normal 0.95694 0.290285 0
    outer loop
      vertex 3.72698 0.741343 0
      vertex 3.51074 1.4542 0
      vertex 3.51074 1.4542 1.5
    endloop
  endfacet
  facet normal 0.95694 0.290285 0
    outer loop
      vertex 3.72698 0.741343 1.5
      vertex 3.72698 0.741343 0
      vertex 3.51074 1.4542 1.5
    endloop
  endfacet
  facet normal 0.881922 0.471396 0
    outer loop
      vertex 3.51074 1.4542 0
      vertex 3.15958 2.11117 0
      vertex 3.15958 2.11117 1.5
    endloop
  endfacet
  facet normal 0.881922 0.471396 0
    outer loop
      vertex 3.51074 1.4542 1.5
      vertex 3.51074 1.4542 0
      vertex 3.15958 2.11117 1.5
    endloop
  endfacet
  facet normal 0.77301 0.634393 0
    outer loop
      vertex 3.15958 2.11117 0
      vertex 2.68701 2.68701 0
      vertex 2.68701 2.68701 1.5
    endloop
  endfacet
  facet normal 0.77301 0.634393 0
    outer loop
      vertex 3.15958 2.11117 1.5
      vertex 3.15958 2.11117 0
      vertex 2.68701 2.68701 1.5
    endloop
  endfacet
  facet normal 0.634393 0.77301 0
    outer loop
      vertex 2.11117 3.15958 0
      vertex 2.11117 3.15958 1.5
      vertex 2.68701 2.68701 0
    endloop
  endfacet
  facet normal 0.634393 0.77301 0
    outer loop
      vertex 2.68701 2.68701 0
      vertex 2.11117 3.15958 1.5
      vertex 2.68701 2.68701 1.5
    endloop
  endfacet
  facet normal 0.471396 0.881922 0
    outer loop
      vertex 1.4542 3.51074 0
      vertex 1.4542 3.51074 1.5
      vertex 2.11117 3.15958 0
    endloop
  endfacet
  facet normal 0.471396 0.881922 0
    outer loop
      vertex 2.11117 3.15958 0
      vertex 1.4542 3.51074 1.5
      vertex 2.11117 3.15958 1.5
    endloop
  endfacet
  facet normal 0.290285 0.95694 0
    outer loop
      vertex 0.741343 3.72698 0
      vertex 0.741343 3.72698 1.5
      vertex 1.4542 3.51074 0
    endloop
  endfacet
  facet normal 0.290285 0.95694 0
    outer loop
      vertex 1.4542 3.51074 0
      vertex 0.741343 3.72698 1.5
      vertex 1.4542 3.51074 1.5
    endloop
  endfacet
  facet normal 0.0980173 0.995185 0
    outer loop
      vertex 0 3.8 0
      vertex 0 3.8 1.5
      vertex 0.741343 3.72698 0
    endloop
  endfacet
  facet normal 0.0980173 0.995185 0
    outer loop
      vertex 0.741343 3.72698 0
      vertex 0 3.8 1.5
      vertex 0.741343 3.72698 1.5
    endloop
  endfacet
  facet normal -0.0980173 0.995185 0
    outer loop
      vertex -0.741343 3.72698 0
      vertex -0.741343 3.72698 1.5
      vertex 0 3.8 0
    endloop
  endfacet
  facet normal -0.0980173 0.995185 0
    outer loop
      vertex 0 3.8 0
      vertex -0.741343 3.72698 1.5
      vertex 0 3.8 1.5
    endloop
  endfacet
  facet normal -0.290285 0.95694 0
    outer loop
      vertex -1.4542 3.51074 0
      vertex -1.4542 3.51074 1.5
      vertex -0.741343 3.72698 0
    endloop
  endfacet
  facet normal -0.290285 0.95694 0
    outer loop
      vertex -0.741343 3.72698 0
      vertex -1.4542 3.51074 1.5
      vertex -0.741343 3.72698 1.5
    endloop
  endfacet
  facet normal -0.471396 0.881922 0
    outer loop
      vertex -2.11117 3.15958 0
      vertex -2.11117 3.15958 1.5
      vertex -1.4542 3.51074 0
    endloop
  endfacet
  facet normal -0.471396 0.881922 0
    outer loop
      vertex -1.4542 3.51074 0
      vertex -2.11117 3.15958 1.5
      vertex -1.4542 3.51074 1.5
    endloop
  endfacet
  facet normal -0.634393 0.77301 0
    outer loop
      vertex -2.68701 2.68701 0
      vertex -2.68701 2.68701 1.5
      vertex -2.11117 3.15958 0
    endloop
  endfacet
  facet normal -0.634393 0.77301 0
    outer loop
      vertex -2.11117 3.15958 0
      vertex -2.68701 2.68701 1.5
      vertex -2.11117 3.15958 1.5
    endloop
  endfacet
  facet normal -0.77301 0.634393 0
    outer loop
      vertex -3.15958 2.11117 0
      vertex -3.15958 2.11117 1.5
      vertex -2.68701 2.68701 0
    endloop
  endfacet
  facet normal -0.77301 0.634393 0
    outer loop
      vertex -2.68701 2.68701 0
      vertex -3.15958 2.11117 1.5
      vertex -2.68701 2.68701 1.5
    endloop
  endfacet
  facet normal -0.881922 0.471396 0
    outer loop
      vertex -3.51074 1.4542 0
      vertex -3.51074 1.4542 1.5
      vertex -3.15958 2.11117 0
    endloop
  endfacet
  facet normal -0.881922 0.471396 0
    outer loop
      vertex -3.15958 2.11117 0
      vertex -3.51074 1.4542 1.5
      vertex -3.15958 2.11117 1.5
    endloop
  endfacet
  facet normal -0.95694 0.290285 0
    outer loop
      vertex -3.72698 0.741343 0
      vertex -3.72698 0.741343 1.5
      vertex -3.51074 1.4542 0
    endloop
  endfacet
  facet normal -0.95694 0.290285 0
    outer loop
      vertex -3.51074 1.4542 0
      vertex -3.72698 0.741343 1.5
      vertex -3.51074 1.4542 1.5
    endloop
  endfacet
  facet normal 0 0 1
    outer loop
      vertex -3.72698 0.741343 1.5
      vertex -3.8 0 1.5
      vertex -3.72698 -0.741343 1.5
    endloop
  endfacet
  facet normal 0 0 1
    outer loop
      vertex -3.15958 -2.11117 1.5
      vertex -3.72698 0.741343 1.5
      vertex -3.51074 -1.4542 1.5
    endloop
  endfacet
  facet normal 0 0 1
    outer loop
      vertex -3.51074 -1.4542 1.5
      vertex -3.72698 0.741343 1.5
      vertex -3.72698 -0.741343 1.5
    endloop
  endfacet
  facet normal 0 0 1
    outer loop
      vertex -2.68701 -2.68701 1.5
      vertex -3.72698 0.741343 1.5
      vertex -3.15958 -2.11117 1.5
    endloop
  endfacet
  facet normal 0 0 1
    outer loop
      vertex -2.11117 -3.15958 1.5
      vertex -3.72698 0.741343 1.5
      vertex -2.68701 -2.68701 1.5
    endloop
  endfacet
  facet normal 0 0 1
    outer loop
      vertex -1.4542 -3.51074 1.5
      vertex -3.72698 0.741343 1.5
      vertex -2.11117 -3.15958 1.5
    endloop
  endfacet
  facet normal 0 0 1
    outer loop
      vertex -0.741343 -3.72698 1.5
      vertex -3.72698 0.741343 1.5
      vertex -1.4542 -3.51074 1.5
    endloop
  endfacet
  facet normal 0 0 1
    outer loop
      vertex -2.0371 -1.36115 1.5
      vertex -3.72698 0.741343 1.5
      vertex -0.741343 -3.72698 1.5
    endloop
  endfacet
  facet normal 0 0 1
    outer loop
      vertex 2.0371 1.36115 1.5
      vertex 2.2635 0.937574 1.5
      vertex 3.51074 1.4542 1.5
    endloop
  endfacet
  facet normal 0 0 1
    outer loop
      vertex -0.937574 2.2635 1.5
      vertex -0.477971 2.40292 1.5
      vertex 1.4542 3.51074 1.5
    endloop
  endfacet
  facet normal 0 0 1
    outer loop
      vertex 0.937574 2.2635 1.5
      vertex 1.36115 2.0371 1.5
      vertex 2.68701 2.68701 1.5
    endloop
  endfacet
  facet normal 0 0 1
    outer loop
      vertex 0 3.8 1.5
      vertex -3.72698 0.741343 1.5
      vertex 0.741343 3.72698 1.5
    endloop
  endfacet
  facet normal 0 0 1
    outer loop
      vertex -0.741343 3.72698 1.5
      vertex -3.72698 0.741343 1.5
      vertex 0 3.8 1.5
    endloop
  endfacet
  facet normal 0 0 1
    outer loop
      vertex -1.4542 3.51074 1.5
      vertex -3.72698 0.741343 1.5
      vertex -0.741343 3.72698 1.5
    endloop
  endfacet
  facet normal 0 0 1
    outer loop
      vertex -2.11117 3.15958 1.5
      vertex -3.72698 0.741343 1.5
      vertex -1.4542 3.51074 1.5
    endloop
  endfacet
  facet normal 0 0 1
    outer loop
      vertex -2.68701 2.68701 1.5
      vertex -3.72698 0.741343 1.5
      vertex -2.11117 3.15958 1.5
    endloop
  endfacet
  facet normal 0 0 1
    outer loop
      vertex -3.15958 2.11117 1.5
      vertex -3.72698 0.741343 1.5
      vertex -2.68701 2.68701 1.5
    endloop
  endfacet
  facet normal 0 0 1
    outer loop
      vertex -3.51074 1.4542 1.5
      vertex -3.72698 0.741343 1.5
      vertex -3.15958 2.11117 1.5
    endloop
  endfacet
  facet normal 0 0 1
    outer loop
      vertex -1.36115 -2.0371 1.5
      vertex -1.73241 -1.73241 1.5
      vertex 0 -3.8 1.5
    endloop
  endfacet
  facet normal 0 0 1
    outer loop
      vertex 0.477971 -2.40292 1.5
      vertex 0 -2.45 1.5
      vertex 1.4542 -3.51074 1.5
    endloop
  endfacet
  facet normal 0 0 1
    outer loop
      vertex 2.0371 -1.36115 1.5
      vertex 1.73241 -1.73241 1.5
      vertex 3.15958 -2.11117 1.5
    endloop
  endfacet
  facet normal 0 0 1
    outer loop
      vertex 2.2635 0.937574 1.5
      vertex 2.40292 0.477971 1.5
      vertex 3.72698 0.741343 1.5
    endloop
  endfacet
  facet normal 0 0 1
    outer loop
      vertex -1.73241 1.73241 1.5
      vertex -1.36115 2.0371 1.5
      vertex -3.72698 0.741343 1.5
    endloop
  endfacet
  facet normal 0 0 1
    outer loop
      vertex 1.36115 2.0371 1.5
      vertex 1.73241 1.73241 1.5
      vertex 3.15958 2.11117 1.5
    endloop
  endfacet
  facet normal 0 0 1
    outer loop
      vertex 0 2.45 1.5
      vertex 0.477971 2.40292 1.5
      vertex 2.11117 3.15958 1.5
    endloop
  endfacet
  facet normal 0 0 1
    outer loop
      vertex 0.741343 3.72698 1.5
      vertex -3.72698 0.741343 1.5
      vertex -1.36115 2.0371 1.5
    endloop
  endfacet
  facet normal 0 0 1
    outer loop
      vertex 0.741343 3.72698 1.5
      vertex -0.937574 2.2635 1.5
      vertex 1.4542 3.51074 1.5
    endloop
  endfacet
  facet normal 0 0 1
    outer loop
      vertex 0.741343 3.72698 1.5
      vertex -1.36115 2.0371 1.5
      vertex -0.937574 2.2635 1.5
    endloop
  endfacet
  facet normal 0 0 1
    outer loop
      vertex 1.4542 3.51074 1.5
      vertex -0.477971 2.40292 1.5
      vertex 2.11117 3.15958 1.5
    endloop
  endfacet
  facet normal 0 0 1
    outer loop
      vertex -0.477971 2.40292 1.5
      vertex 0 2.45 1.5
      vertex 2.11117 3.15958 1.5
    endloop
  endfacet
  facet normal 0 0 1
    outer loop
      vertex 2.11117 3.15958 1.5
      vertex 0.477971 2.40292 1.5
      vertex 2.68701 2.68701 1.5
    endloop
  endfacet
  facet normal 0 0 1
    outer loop
      vertex 0.477971 2.40292 1.5
      vertex 0.937574 2.2635 1.5
      vertex 2.68701 2.68701 1.5
    endloop
  endfacet
  facet normal 0 0 1
    outer loop
      vertex 2.68701 2.68701 1.5
      vertex 1.36115 2.0371 1.5
      vertex 3.15958 2.11117 1.5
    endloop
  endfacet
  facet normal 0 0 1
    outer loop
      vertex -2.0371 1.36115 1.5
      vertex -1.73241 1.73241 1.5
      vertex -3.72698 0.741343 1.5
    endloop
  endfacet
  facet normal 0 0 1
    outer loop
      vertex 3.15958 2.11117 1.5
      vertex 1.73241 1.73241 1.5
      vertex 3.51074 1.4542 1.5
    endloop
  endfacet
  facet normal 0 0 1
    outer loop
      vertex 1.73241 1.73241 1.5
      vertex 2.0371 1.36115 1.5
      vertex 3.51074 1.4542 1.5
    endloop
  endfacet
  facet normal 0 0 1
    outer loop
      vertex 3.51074 1.4542 1.5
      vertex 2.2635 0.937574 1.5
      vertex 3.72698 0.741343 1.5
    endloop
  endfacet
  facet normal 0 0 1
    outer loop
      vertex 1.73241 -1.73241 1.5
      vertex 1.36115 -2.0371 1.5
      vertex 2.68701 -2.68701 1.5
    endloop
  endfacet
  facet normal 0 0 1
    outer loop
      vertex 3.72698 0.741343 1.5
      vertex 2.40292 0.477971 1.5
      vertex 3.8 0 1.5
    endloop
  endfacet
  facet normal 0 0 1
    outer loop
      vertex -2.2635 0.937574 1.5
      vertex -2.0371 1.36115 1.5
      vertex -3.72698 0.741343 1.5
    endloop
  endfacet
  facet normal 0 0 1
    outer loop
      vertex 3.8 0 1.5
      vertex 2.45 0 1.5
      vertex 3.72698 -0.741343 1.5
    endloop
  endfacet
  facet normal 0 0 1
    outer loop
      vertex 2.45 0 1.5
      vertex 2.40292 -0.477971 1.5
      vertex 3.72698 -0.741343 1.5
    endloop
  endfacet
  facet normal 0 0 1
    outer loop
      vertex 3.72698 -0.741343 1.5
      vertex 2.2635 -0.937574 1.5
      vertex 3.51074 -1.4542 1.5
    endloop
  endfacet
  facet normal 0 0 1
    outer loop
      vertex 3.51074 -1.4542 1.5
      vertex 2.0371 -1.36115 1.5
      vertex 3.15958 -2.11117 1.5
    endloop
  endfacet
  facet normal 0 0 1
    outer loop
      vertex 2.40292 0.477971 1.5
      vertex 2.45 0 1.5
      vertex 3.8 0 1.5
    endloop
  endfacet
  facet normal 0 0 1
    outer loop
      vertex 3.15958 -2.11117 1.5
      vertex 1.73241 -1.73241 1.5
      vertex 2.68701 -2.68701 1.5
    endloop
  endfacet
  facet normal 0 0 1
    outer loop
      vertex 2.40292 -0.477971 1.5
      vertex 2.2635 -0.937574 1.5
      vertex 3.72698 -0.741343 1.5
    endloop
  endfacet
  facet normal 0 0 1
    outer loop
      vertex 2.68701 -2.68701 1.5
      vertex 1.36115 -2.0371 1.5
      vertex 2.11117 -3.15958 1.5
    endloop
  endfacet
  facet normal 0 0 1
    outer loop
      vertex 1.36115 -2.0371 1.5
      vertex 0.937574 -2.2635 1.5
      vertex 2.11117 -3.15958 1.5
    endloop
  endfacet
  facet normal 0 0 1
    outer loop
      vertex 2.11117 -3.15958 1.5
      vertex 0.477971 -2.40292 1.5
      vertex 1.4542 -3.51074 1.5
    endloop
  endfacet
  facet normal 0 0 1
    outer loop
      vertex 1.4542 -3.51074 1.5
      vertex 0 -2.45 1.5
      vertex 0.741343 -3.72698 1.5
    endloop
  endfacet
  facet normal 0 0 1
    outer loop
      vertex 0 -2.45 1.5
      vertex -0.477971 -2.40292 1.5
      vertex 0.741343 -3.72698 1.5
    endloop
  endfacet
  facet normal 0 0 1
    outer loop
      vertex 0.741343 -3.72698 1.5
      vertex -0.937574 -2.2635 1.5
      vertex 0 -3.8 1.5
    endloop
  endfacet
  facet normal 0 0 1
    outer loop
      vertex -2.0371 -1.36115 1.5
      vertex -2.2635 -0.937574 1.5
      vertex -3.72698 0.741343 1.5
    endloop
  endfacet
  facet normal 0 0 1
    outer loop
      vertex -0.937574 -2.2635 1.5
      vertex -1.36115 -2.0371 1.5
      vertex 0 -3.8 1.5
    endloop
  endfacet
  facet normal 0 0 1
    outer loop
      vertex 0 -3.8 1.5
      vertex -1.73241 -1.73241 1.5
      vertex -0.741343 -3.72698 1.5
    endloop
  endfacet
  facet normal 0 0 1
    outer loop
      vertex -1.73241 -1.73241 1.5
      vertex -2.0371 -1.36115 1.5
      vertex -0.741343 -3.72698 1.5
    endloop
  endfacet
  facet normal 0 0 1
    outer loop
      vertex -0.477971 -2.40292 1.5
      vertex -0.937574 -2.2635 1.5
      vertex 0.741343 -3.72698 1.5
    endloop
  endfacet
  facet normal 0 0 1
    outer loop
      vertex -2.2635 -0.937574 1.5
      vertex -2.40292 -0.477971 1.5
      vertex -3.72698 0.741343 1.5
    endloop
  endfacet
  facet normal 0 0 1
    outer loop
      vertex -2.40292 -0.477971 1.5
      vertex -2.45 0 1.5
      vertex -3.72698 0.741343 1.5
    endloop
  endfacet
  facet normal 0 0 1
    outer loop
      vertex 0.937574 -2.2635 1.5
      vertex 0.477971 -2.40292 1.5
      vertex 2.11117 -3.15958 1.5
    endloop
  endfacet
  facet normal 0 0 1
    outer loop
      vertex -2.45 0 1.5
      vertex -2.40292 0.477971 1.5
      vertex -3.72698 0.741343 1.5
    endloop
  endfacet
  facet normal 0 0 1
    outer loop
      vertex 2.2635 -0.937574 1.5
      vertex 2.0371 -1.36115 1.5
      vertex 3.51074 -1.4542 1.5
    endloop
  endfacet
  facet normal 0 0 1
    outer loop
      vertex -2.40292 0.477971 1.5
      vertex -2.2635 0.937574 1.5
      vertex -3.72698 0.741343 1.5
    endloop
  endfacet
  facet normal -0.95694 -0.290285 0
    outer loop
      vertex -2.40292 -0.477971 1.5
      vertex -2.2635 -0.937574 1.5
      vertex -2.40292 -0.477971 4
    endloop
  endfacet
  facet normal -0.95694 -0.290285 0
    outer loop
      vertex -2.40292 -0.477971 4
      vertex -2.2635 -0.937574 1.5
      vertex -2.2635 -0.937574 4
    endloop
  endfacet
  facet normal -0.995185 -0.0980171 0
    outer loop
      vertex -2.45 0 1.5
      vertex -2.40292 -0.477971 1.5
      vertex -2.45 0 4
    endloop
  endfacet
  facet normal -0.995185 -0.0980171 0
    outer loop
      vertex -2.45 0 4
      vertex -2.40292 -0.477971 1.5
      vertex -2.40292 -0.477971 4
    endloop
  endfacet
  facet normal -0.881922 -0.471396 0
    outer loop
      vertex -2.2635 -0.937574 1.5
      vertex -2.0371 -1.36115 1.5
      vertex -2.2635 -0.937574 4
    endloop
  endfacet
  facet normal -0.881922 -0.471396 0
    outer loop
      vertex -2.2635 -0.937574 4
      vertex -2.0371 -1.36115 1.5
      vertex -2.0371 -1.36115 4
    endloop
  endfacet
  facet normal -0.773011 -0.634393 0
    outer loop
      vertex -2.0371 -1.36115 1.5
      vertex -1.73241 -1.73241 1.5
      vertex -2.0371 -1.36115 4
    endloop
  endfacet
  facet normal -0.773011 -0.634393 0
    outer loop
      vertex -2.0371 -1.36115 4
      vertex -1.73241 -1.73241 1.5
      vertex -1.73241 -1.73241 4
    endloop
  endfacet
  facet normal -0.634393 -0.773011 0
    outer loop
      vertex -1.73241 -1.73241 4
      vertex -1.73241 -1.73241 1.5
      vertex -1.36115 -2.0371 1.5
    endloop
  endfacet
  facet normal -0.634393 -0.773011 0
    outer loop
      vertex -1.36115 -2.0371 4
      vertex -1.73241 -1.73241 4
      vertex -1.36115 -2.0371 1.5
    endloop
  endfacet
  facet normal -0.471396 -0.881922 0
    outer loop
      vertex -1.36115 -2.0371 4
      vertex -1.36115 -2.0371 1.5
      vertex -0.937574 -2.2635 1.5
    endloop
  endfacet
  facet normal -0.471396 -0.881922 0
    outer loop
      vertex -0.937574 -2.2635 4
      vertex -1.36115 -2.0371 4
      vertex -0.937574 -2.2635 1.5
    endloop
  endfacet
  facet normal -0.290285 -0.95694 0
    outer loop
      vertex -0.937574 -2.2635 4
      vertex -0.937574 -2.2635 1.5
      vertex -0.477971 -2.40292 1.5
    endloop
  endfacet
  facet normal -0.290285 -0.95694 0
    outer loop
      vertex -0.477971 -2.40292 4
      vertex -0.937574 -2.2635 4
      vertex -0.477971 -2.40292 1.5
    endloop
  endfacet
  facet normal -0.0980171 -0.995185 0
    outer loop
      vertex -0.477971 -2.40292 4
      vertex -0.477971 -2.40292 1.5
      vertex 0 -2.45 1.5
    endloop
  endfacet
  facet normal -0.0980171 -0.995185 0
    outer loop
      vertex 0 -2.45 4
      vertex -0.477971 -2.40292 4
      vertex 0 -2.45 1.5
    endloop
  endfacet
  facet normal 0.0980171 -0.995185 0
    outer loop
      vertex 0 -2.45 4
      vertex 0 -2.45 1.5
      vertex 0.477971 -2.40292 1.5
    endloop
  endfacet
  facet normal 0.0980171 -0.995185 0
    outer loop
      vertex 0.477971 -2.40292 4
      vertex 0 -2.45 4
      vertex 0.477971 -2.40292 1.5
    endloop
  endfacet
  facet normal 0.290285 -0.95694 0
    outer loop
      vertex 0.477971 -2.40292 4
      vertex 0.477971 -2.40292 1.5
      vertex 0.937574 -2.2635 1.5
    endloop
  endfacet
  facet normal 0.290285 -0.95694 0
    outer loop
      vertex 0.937574 -2.2635 4
      vertex 0.477971 -2.40292 4
      vertex 0.937574 -2.2635 1.5
    endloop
  endfacet
  facet normal 0.471396 -0.881922 0
    outer loop
      vertex 0.937574 -2.2635 4
      vertex 0.937574 -2.2635 1.5
      vertex 1.36115 -2.0371 1.5
    endloop
  endfacet
  facet normal 0.471396 -0.881922 0
    outer loop
      vertex 1.36115 -2.0371 4
      vertex 0.937574 -2.2635 4
      vertex 1.36115 -2.0371 1.5
    endloop
  endfacet
  facet normal 0.634393 -0.773011 0
    outer loop
      vertex 1.36115 -2.0371 4
      vertex 1.36115 -2.0371 1.5
      vertex 1.73241 -1.73241 1.5
    endloop
  endfacet
  facet normal 0.634393 -0.773011 0
    outer loop
      vertex 1.73241 -1.73241 4
      vertex 1.36115 -2.0371 4
      vertex 1.73241 -1.73241 1.5
    endloop
  endfacet
  facet normal 0.773011 -0.634393 0
    outer loop
      vertex 1.73241 -1.73241 4
      vertex 1.73241 -1.73241 1.5
      vertex 2.0371 -1.36115 1.5
    endloop
  endfacet
  facet normal 0.773011 -0.634393 0
    outer loop
      vertex 2.0371 -1.36115 4
      vertex 1.73241 -1.73241 4
      vertex 2.0371 -1.36115 1.5
    endloop
  endfacet
  facet normal 0.881922 -0.471396 0
    outer loop
      vertex 2.0371 -1.36115 4
      vertex 2.0371 -1.36115 1.5
      vertex 2.2635 -0.937574 1.5
    endloop
  endfacet
  facet normal 0.881922 -0.471396 0
    outer loop
      vertex 2.2635 -0.937574 4
      vertex 2.0371 -1.36115 4
      vertex 2.2635 -0.937574 1.5
    endloop
  endfacet
  facet normal 0.95694 -0.290285 0
    outer loop
      vertex 2.2635 -0.937574 4
      vertex 2.2635 -0.937574 1.5
      vertex 2.40292 -0.477971 1.5
    endloop
  endfacet
  facet normal 0.95694 -0.290285 0
    outer loop
      vertex 2.40292 -0.477971 4
      vertex 2.2635 -0.937574 4
      vertex 2.40292 -0.477971 1.5
    endloop
  endfacet
  facet normal 0.995185 -0.0980171 0
    outer loop
      vertex 2.40292 -0.477971 4
      vertex 2.40292 -0.477971 1.5
      vertex 2.45 0 1.5
    endloop
  endfacet
  facet normal 0.995185 -0.0980171 0
    outer loop
      vertex 2.45 0 4
      vertex 2.40292 -0.477971 4
      vertex 2.45 0 1.5
    endloop
  endfacet
  facet normal 0.995185 0.0980171 0
    outer loop
      vertex 2.45 0 1.5
      vertex 2.40292 0.477971 1.5
      vertex 2.40292 0.477971 4
    endloop
  endfacet
  facet normal 0.995185 0.0980171 0
    outer loop
      vertex 2.45 0 4
      vertex 2.45 0 1.5
      vertex 2.40292 0.477971 4
    endloop
  endfacet
  facet normal 0.95694 0.290285 0
    outer loop
      vertex 2.40292 0.477971 1.5
      vertex 2.2635 0.937574 1.5
      vertex 2.2635 0.937574 4
    endloop
  endfacet
  facet normal 0.95694 0.290285 0
    outer loop
      vertex 2.40292 0.477971 4
      vertex 2.40292 0.477971 1.5
      vertex 2.2635 0.937574 4
    endloop
  endfacet
  facet normal 0.881922 0.471396 0
    outer loop
      vertex 2.2635 0.937574 1.5
      vertex 2.0371 1.36115 1.5
      vertex 2.0371 1.36115 4
    endloop
  endfacet
  facet normal 0.881922 0.471396 0
    outer loop
      vertex 2.2635 0.937574 4
      vertex 2.2635 0.937574 1.5
      vertex 2.0371 1.36115 4
    endloop
  endfacet
  facet normal 0.773011 0.634393 0
    outer loop
      vertex 2.0371 1.36115 1.5
      vertex 1.73241 1.73241 1.5
      vertex 1.73241 1.73241 4
    endloop
  endfacet
  facet normal 0.773011 0.634393 0
    outer loop
      vertex 2.0371 1.36115 4
      vertex 2.0371 1.36115 1.5
      vertex 1.73241 1.73241 4
    endloop
  endfacet
  facet normal 0.634393 0.773011 0
    outer loop
      vertex 1.36115 2.0371 1.5
      vertex 1.36115 2.0371 4
      vertex 1.73241 1.73241 1.5
    endloop
  endfacet
  facet normal 0.634393 0.773011 0
    outer loop
      vertex 1.73241 1.73241 1.5
      vertex 1.36115 2.0371 4
      vertex 1.73241 1.73241 4
    endloop
  endfacet
  facet normal 0.471396 0.881922 0
    outer loop
      vertex 0.937574 2.2635 1.5
      vertex 0.937574 2.2635 4
      vertex 1.36115 2.0371 1.5
    endloop
  endfacet
  facet normal 0.471396 0.881922 0
    outer loop
      vertex 1.36115 2.0371 1.5
      vertex 0.937574 2.2635 4
      vertex 1.36115 2.0371 4
    endloop
  endfacet
  facet normal 0.290285 0.95694 0
    outer loop
      vertex 0.477971 2.40292 1.5
      vertex 0.477971 2.40292 4
      vertex 0.937574 2.2635 1.5
    endloop
  endfacet
  facet normal 0.290285 0.95694 0
    outer loop
      vertex 0.937574 2.2635 1.5
      vertex 0.477971 2.40292 4
      vertex 0.937574 2.2635 4
    endloop
  endfacet
  facet normal 0.0980171 0.995185 0
    outer loop
      vertex 0 2.45 1.5
      vertex 0 2.45 4
      vertex 0.477971 2.40292 1.5
    endloop
  endfacet
  facet normal 0.0980171 0.995185 0
    outer loop
      vertex 0.477971 2.40292 1.5
      vertex 0 2.45 4
      vertex 0.477971 2.40292 4
    endloop
  endfacet
  facet normal -0.0980171 0.995185 0
    outer loop
      vertex -0.477971 2.40292 1.5
      vertex -0.477971 2.40292 4
      vertex 0 2.45 1.5
    endloop
  endfacet
  facet normal -0.0980171 0.995185 0
    outer loop
      vertex 0 2.45 1.5
      vertex -0.477971 2.40292 4
      vertex 0 2.45 4
    endloop
  endfacet
  facet normal -0.290285 0.95694 0
    outer loop
      vertex -0.937574 2.2635 1.5
      vertex -0.937574 2.2635 4
      vertex -0.477971 2.40292 1.5
    endloop
  endfacet
  facet normal -0.290285 0.95694 0
    outer loop
      vertex -0.477971 2.40292 1.5
      vertex -0.937574 2.2635 4
      vertex -0.477971 2.40292 4
    endloop
  endfacet
  facet normal -0.471396 0.881922 0
    outer loop
      vertex -1.36115 2.0371 1.5
      vertex -1.36115 2.0371 4
      vertex -0.937574 2.2635 1.5
    endloop
  endfacet
  facet normal -0.471396 0.881922 0
    outer loop
      vertex -0.937574 2.2635 1.5
      vertex -1.36115 2.0371 4
      vertex -0.937574 2.2635 4
    endloop
  endfacet
  facet normal -0.634393 0.773011 0
    outer loop
      vertex -1.73241 1.73241 1.5
      vertex -1.73241 1.73241 4
      vertex -1.36115 2.0371 1.5
    endloop
  endfacet
  facet normal -0.634393 0.773011 0
    outer loop
      vertex -1.36115 2.0371 1.5
      vertex -1.73241 1.73241 4
      vertex -1.36115 2.0371 4
    endloop
  endfacet
  facet normal -0.773011 0.634393 0
    outer loop
      vertex -2.0371 1.36115 1.5
      vertex -2.0371 1.36115 4
      vertex -1.73241 1.73241 1.5
    endloop
  endfacet
  facet normal -0.773011 0.634393 0
    outer loop
      vertex -1.73241 1.73241 1.5
      vertex -2.0371 1.36115 4
      vertex -1.73241 1.73241 4
    endloop
  endfacet
  facet normal -0.881922 0.471396 0
    outer loop
      vertex -2.2635 0.937574 1.5
      vertex -2.2635 0.937574 4
      vertex -2.0371 1.36115 1.5
    endloop
  endfacet
  facet normal -0.881922 0.471396 0
    outer loop
      vertex -2.0371 1.36115 1.5
      vertex -2.2635 0.937574 4
      vertex -2.0371 1.36115 4
    endloop
  endfacet
  facet normal -0.95694 0.290285 0
    outer loop
      vertex -2.40292 0.477971 1.5
      vertex -2.40292 0.477971 4
      vertex -2.2635 0.937574 1.5
    endloop
  endfacet
  facet normal -0.95694 0.290285 0
    outer loop
      vertex -2.2635 0.937574 1.5
      vertex -2.40292 0.477971 4
      vertex -2.2635 0.937574 4
    endloop
  endfacet
  facet normal -0.995185 0.0980171 0
    outer loop
      vertex -2.45 0 1.5
      vertex -2.45 0 4
      vertex -2.40292 0.477971 1.5
    endloop
  endfacet
  facet normal -0.995185 0.0980171 0
    outer loop
      vertex -2.40292 0.477971 1.5
      vertex -2.45 0 4
      vertex -2.40292 0.477971 4
    endloop
  endfacet
  facet normal 0 0 1
    outer loop
      vertex -2.40292 0.477971 4
      vertex -2.45 0 4
      vertex -2.40292 -0.477971 4
    endloop
  endfacet
  facet normal 0 0 1
    outer loop
      vertex -2.0371 -1.36115 4
      vertex -2.40292 0.477971 4
      vertex -2.2635 -0.937574 4
    endloop
  endfacet
  facet normal 0 0 1
    outer loop
      vertex -2.2635 -0.937574 4
      vertex -2.40292 0.477971 4
      vertex -2.40292 -0.477971 4
    endloop
  endfacet
  facet normal 0 0 1
    outer loop
      vertex -1.73241 -1.73241 4
      vertex -2.40292 0.477971 4
      vertex -2.0371 -1.36115 4
    endloop
  endfacet
  facet normal 0 0 1
    outer loop
      vertex -1.36115 -2.0371 4
      vertex -2.40292 0.477971 4
      vertex -1.73241 -1.73241 4
    endloop
  endfacet
  facet normal 0 0 1
    outer loop
      vertex -0.937574 -2.2635 4
      vertex -2.40292 0.477971 4
      vertex -1.36115 -2.0371 4
    endloop
  endfacet
  facet normal 0 0 1
    outer loop
      vertex -0.477971 -2.40292 4
      vertex -2.40292 0.477971 4
      vertex -0.937574 -2.2635 4
    endloop
  endfacet
  facet normal 0 0 1
    outer loop
      vertex 0 -2.45 4
      vertex -2.40292 0.477971 4
      vertex -0.477971 -2.40292 4
    endloop
  endfacet
  facet normal 0 0 1
    outer loop
      vertex 0.477971 -2.40292 4
      vertex -2.40292 0.477971 4
      vertex 0 -2.45 4
    endloop
  endfacet
  facet normal 0 0 1
    outer loop
      vertex 0.937574 -2.2635 4
      vertex -2.40292 0.477971 4
      vertex 0.477971 -2.40292 4
    endloop
  endfacet
  facet normal 0 0 1
    outer loop
      vertex 1.36115 -2.0371 4
      vertex -2.40292 0.477971 4
      vertex 0.937574 -2.2635 4
    endloop
  endfacet
  facet normal 0 0 1
    outer loop
      vertex 1.73241 -1.73241 4
      vertex -2.40292 0.477971 4
      vertex 1.36115 -2.0371 4
    endloop
  endfacet
  facet normal 0 0 1
    outer loop
      vertex 2.0371 -1.36115 4
      vertex -2.40292 0.477971 4
      vertex 1.73241 -1.73241 4
    endloop
  endfacet
  facet normal 0 0 1
    outer loop
      vertex 2.2635 -0.937574 4
      vertex -2.40292 0.477971 4
      vertex 2.0371 -1.36115 4
    endloop
  endfacet
  facet normal 0 0 1
    outer loop
      vertex 2.40292 -0.477971 4
      vertex -2.40292 0.477971 4
      vertex 2.2635 -0.937574 4
    endloop
  endfacet
  facet normal 0 0 1
    outer loop
      vertex 2.45 0 4
      vertex -2.40292 0.477971 4
      vertex 2.40292 -0.477971 4
    endloop
  endfacet
  facet normal 0 0 1
    outer loop
      vertex 2.40292 0.477971 4
      vertex -2.40292 0.477971 4
      vertex 2.45 0 4
    endloop
  endfacet
  facet normal 0 0 1
    outer loop
      vertex 2.2635 0.937574 4
      vertex -2.40292 0.477971 4
      vertex 2.40292 0.477971 4
    endloop
  endfacet
  facet normal 0 0 1
    outer loop
      vertex 2.0371 1.36115 4
      vertex -2.40292 0.477971 4
      vertex 2.2635 0.937574 4
    endloop
  endfacet
  facet normal 0 0 1
    outer loop
      vertex 1.73241 1.73241 4
      vertex -2.40292 0.477971 4
      vertex 2.0371 1.36115 4
    endloop
  endfacet
  facet normal 0 0 1
    outer loop
      vertex 1.36115 2.0371 4
      vertex -2.40292 0.477971 4
      vertex 1.73241 1.73241 4
    endloop
  endfacet
  facet normal 0 0 1
    outer loop
      vertex 0.937574 2.2635 4
      vertex -2.40292 0.477971 4
      vertex 1.36115 2.0371 4
    endloop
  endfacet
  facet normal 0 0 1
    outer loop
      vertex 0.477971 2.40292 4
      vertex -2.40292 0.477971 4
      vertex 0.937574 2.2635 4
    endloop
  endfacet
  facet normal 0 0 1
    outer loop
      vertex 0 2.45 4
      vertex -2.40292 0.477971 4
      vertex 0.477971 2.40292 4
    endloop
  endfacet
  facet normal 0 0 1
    outer loop
      vertex -0.477971 2.40292 4
      vertex -2.40292 0.477971 4
      vertex 0 2.45 4
    endloop
  endfacet
  facet normal 0 0 1
    outer loop
      vertex -0.937574 2.2635 4
      vertex -2.40292 0.477971 4
      vertex -0.477971 2.40292 4
    endloop
  endfacet
  facet normal 0 0 1
    outer loop
      vertex -1.36115 2.0371 4
      vertex -2.40292 0.477971 4
      vertex -0.937574 2.2635 4
    endloop
  endfacet
  facet normal 0 0 1
    outer loop
      vertex -1.73241 1.73241 4
      vertex -2.40292 0.477971 4
      vertex -1.36115 2.0371 4
    endloop
  endfacet
  facet normal 0 0 1
    outer loop
      vertex -2.0371 1.36115 4
      vertex -2.40292 0.477971 4
      vertex -1.73241 1.73241 4
    endloop
  endfacet
  facet normal 0 0 1
    outer loop
      vertex -2.2635 0.937574 4
      vertex -2.40292 0.477971 4
      vertex -2.0371 1.36115 4
    endloop
  endfacet
endsolid OpenSCAD_Model
